<?xml version="1.0" encoding="utf-8"?>
<!-- Generator: Adobe Illustrator 19.1.0, SVG Export Plug-In . SVG Version: 6.00 Build 0)  -->
<svg version="1.1" id="Layer_1" xmlns="http://www.w3.org/2000/svg" xmlns:xlink="http://www.w3.org/1999/xlink" x="0px" y="0px"
	 viewBox="0 0 600 600" style="enable-background:new 0 0 600 600;" xml:space="preserve">
<style type="text/css">
	.st0{fill:#FFFFFF;}
</style>
<g>
	<path class="st0" d="M501.2,62.2c-9.3-9.3-24.4-9.3-33.7,0c-4.7,4.7-7.2,11.2-7,17.9l0,0.4l0,58.7l58.9,0l0.2,0
		c6.6,0.3,13.2-2.3,17.9-7c9.3-9.3,9.3-24.4,0-33.7c-4.6-4.6-10.8-7.1-17.4-7c-0.7,0-1.4,0.1-2.1,0.1l-11.2,1.2l1.2-11.2
		c0.1-0.7,0.1-1.4,0.1-2.1C508.3,73,505.9,66.8,501.2,62.2z"/>
</g>
<polygon class="st0" points="198.5,139.2 198.5,169.9 156.4,169.9 156.4,139.2 136.9,139.2 136.9,220.2 156.4,220.2 156.4,189.4 
	198.5,189.4 198.5,220.2 217.9,220.2 217.9,139.2 "/>
<polygon class="st0" points="341.7,158.6 341.7,139.2 260.7,139.2 260.7,220.2 341.7,220.2 341.7,200.7 280.2,200.7 280.2,189.4 
	319,189.4 319,169.9 280.2,169.9 280.2,158.6 "/>
<polygon class="st0" points="341.7,280.1 341.7,260.7 260.7,260.7 260.7,341.7 341.7,341.7 341.7,322.3 280.2,322.3 280.2,310.9 
	319,310.9 319,291.5 280.2,291.5 280.2,280.1 "/>
<polygon class="st0" points="400.1,200.7 400.1,139.2 380.6,139.2 380.6,220.2 461.6,220.2 461.6,200.7 "/>
<polygon class="st0" points="443.8,260.7 422.2,316.1 398.4,260.7 379,260.7 413,341.7 432.5,341.7 463.3,260.7 "/>
<path class="st0" d="M217.9,302c0-21.8-17.3-39.7-38.9-40.5l0,0h-42.1v81H179l0,0C200.6,341.7,217.9,323.8,217.9,302z M177.4,323.1
	h-21.1v-42.1h21.1c11.6,0,21.1,9.5,21.1,21.1S189,323.1,177.4,323.1z"/>
</svg>
