<?xml version="1.0" encoding="utf-8"?>
<!-- Generator: Adobe Illustrator 19.1.0, SVG Export Plug-In . SVG Version: 6.00 Build 0)  -->
<svg version="1.1" id="Layer_1" xmlns="http://www.w3.org/2000/svg" xmlns:xlink="http://www.w3.org/1999/xlink" x="0px" y="0px"
	 viewBox="-371 551 420 300" style="enable-background:new -371 551 420 300;" xml:space="preserve">
<style type="text/css">
	.st0{fill:#FFFFFF;}
</style>
<g>
	<path class="st0" d="M2.2,563.2c-9.3-9.3-24.4-9.3-33.7,0c-4.7,4.7-7.2,11.2-7,17.9v0.4v58.7h58.9h0.2c6.6,0.3,13.2-2.3,17.9-7
		c9.3-9.3,9.3-24.4,0-33.7c-4.6-4.6-10.8-7.1-17.4-7c-0.7,0-1.4,0.1-2.1,0.1l-11.2,1.2L9,582.6c0.1-0.7,0.1-1.4,0.1-2.1
		C9.3,574,6.9,567.8,2.2,563.2z"/>
</g>
<polygon class="st0" points="-300.5,640.2 -300.5,670.9 -342.6,670.9 -342.6,640.2 -362.1,640.2 -362.1,721.2 -342.6,721.2 
	-342.6,690.4 -300.5,690.4 -300.5,721.2 -281.1,721.2 -281.1,640.2 "/>
<polygon class="st0" points="-157.3,659.6 -157.3,640.2 -238.3,640.2 -238.3,721.2 -157.3,721.2 -157.3,701.7 -218.8,701.7 
	-218.8,690.4 -180,690.4 -180,670.9 -218.8,670.9 -218.8,659.6 "/>
<polygon class="st0" points="-157.3,781.1 -157.3,761.7 -238.3,761.7 -238.3,842.7 -157.3,842.7 -157.3,823.3 -218.8,823.3 
	-218.8,811.9 -180,811.9 -180,792.5 -218.8,792.5 -218.8,781.1 "/>
<polygon class="st0" points="-98.9,701.7 -98.9,640.2 -118.4,640.2 -118.4,721.2 -37.4,721.2 -37.4,701.7 "/>
<polygon class="st0" points="-55.2,761.7 -76.8,817.1 -100.6,761.7 -120,761.7 -86,842.7 -66.5,842.7 -35.7,761.7 "/>
<path class="st0" d="M-281.1,803c0-21.8-17.3-39.7-38.9-40.5l0,0h-42.1v81h42.1l0,0C-298.4,842.7-281.1,824.8-281.1,803z
	 M-321.6,824.1h-21.1V782h21.1c11.6,0,21.1,9.5,21.1,21.1C-300.5,814.7-310,824.1-321.6,824.1z"/>
</svg>
