<?xml version="1.0" encoding="utf-8"?>
<!-- Generator: Adobe Illustrator 19.1.0, SVG Export Plug-In . SVG Version: 6.00 Build 0)  -->
<svg version="1.1" id="Layer_1" xmlns="http://www.w3.org/2000/svg" xmlns:xlink="http://www.w3.org/1999/xlink" x="0px" y="0px"
	 viewBox="0 0 600 600" style="enable-background:new 0 0 600 600;" xml:space="preserve">
<style type="text/css">
	.st0{fill:#FFFFFF;}
</style>
<g>
	<path class="st0" d="M151.5,462.4c-4.6,0-8.6-1.9-12.2-5.8c-3.6-3.9-5.4-8.7-5.4-14.4c0-5.7,1.7-10.4,5.2-14.1
		c3.5-3.7,7.6-5.5,12.2-5.5c4.7,0,8.5,1.6,11.5,4.9v-18.9h10.7v53.1h-10.7v-5.1C159.9,460.5,156.1,462.4,151.5,462.4z M144.8,442.6
		c0,3.1,0.9,5.6,2.8,7.6c1.9,2,4,3,6.5,3c2.5,0,4.6-1,6.3-3c1.7-2,2.6-4.5,2.6-7.7s-0.9-5.7-2.6-7.8c-1.7-2.1-3.9-3.1-6.4-3.1
		c-2.5,0-4.7,1.1-6.5,3.2C145.7,436.9,144.8,439.5,144.8,442.6z"/>
	<path class="st0" d="M216.8,456.2c-4.3,4.1-9.4,6.2-15.3,6.2c-5.8,0-10.7-1.8-14.5-5.4c-3.8-3.6-5.7-8.4-5.7-14.5
		c0-6.1,1.9-10.9,5.8-14.5c3.9-3.6,8.5-5.4,13.8-5.4c5.3,0,9.8,1.6,13.5,4.8c3.7,3.2,5.5,7.6,5.5,13.2v5.7h-28.1
		c0.3,2.1,1.4,3.8,3.3,5.2c1.9,1.3,4,2,6.3,2c3.8,0,6.9-1.3,9.3-3.8L216.8,456.2z M206.5,433.4c-1.5-1.2-3.3-1.9-5.4-1.9
		c-2.1,0-4.1,0.6-5.8,1.9c-1.8,1.3-2.8,3-3.1,5.2H209C208.8,436.4,207.9,434.6,206.5,433.4z"/>
	<path class="st0" d="M238.7,461.8l-15.2-38.6h11.2l9.6,24.3l9.6-24.3H265l-15.3,38.6H238.7z"/>
	<path class="st0" d="M266.7,460.6c-1.2-1.2-1.8-2.7-1.8-4.5c0-1.8,0.6-3.3,1.8-4.5s2.7-1.8,4.5-1.8c1.8,0,3.3,0.6,4.5,1.8
		s1.8,2.7,1.8,4.5c0,1.8-0.6,3.3-1.8,4.5s-2.7,1.8-4.5,1.8C269.4,462.4,267.9,461.8,266.7,460.6z"/>
	<path class="st0" d="M300.2,441v20.8h-10.7v-53.1h10.7v18.9c3.2-3.3,6.9-4.9,10.9-4.9c4,0,7.4,1.4,10.2,4.3
		c2.8,2.9,4.2,6.7,4.2,11.5v23.4h-10.7v-21c0-5.9-2.2-8.9-6.5-8.9c-2.1,0-4,0.8-5.6,2.3C301,435.8,300.2,438,300.2,441z"/>
	<path class="st0" d="M368.2,456.2c-4.3,4.1-9.4,6.2-15.3,6.2s-10.7-1.8-14.5-5.4c-3.8-3.6-5.7-8.4-5.7-14.5
		c0-6.1,1.9-10.9,5.8-14.5c3.9-3.6,8.5-5.4,13.8-5.4c5.3,0,9.8,1.6,13.5,4.8c3.7,3.2,5.5,7.6,5.5,13.2v5.7h-28.1
		c0.3,2.1,1.4,3.8,3.3,5.2c1.9,1.3,4,2,6.3,2c3.8,0,6.9-1.3,9.3-3.8L368.2,456.2z M357.9,433.4c-1.5-1.2-3.3-1.9-5.4-1.9
		s-4.1,0.6-5.8,1.9c-1.8,1.3-2.8,3-3.1,5.2h16.9C360.2,436.4,359.4,434.6,357.9,433.4z"/>
	<path class="st0" d="M389.5,461.8h-10.7v-53.1h10.7V461.8z"/>
	<path class="st0" d="M401.7,460.6c-1.2-1.2-1.8-2.7-1.8-4.5c0-1.8,0.6-3.3,1.8-4.5c1.2-1.2,2.7-1.8,4.5-1.8c1.8,0,3.3,0.6,4.5,1.8
		s1.8,2.7,1.8,4.5c0,1.8-0.6,3.3-1.8,4.5s-2.7,1.8-4.5,1.8C404.4,462.4,402.9,461.8,401.7,460.6z"/>
	<path class="st0" d="M433.4,421.1v2.6h9.3v7.7h-9.3v30.4h-10.8v-30.4h-4.5v-7.7h4.5v-2.4c0-4.2,1.3-7.5,3.8-10
		c2.6-2.5,5.7-3.7,9.5-3.7c3.8,0,7.2,1.4,10.3,4.3l-3.9,7.2c-1.6-1.8-3.3-2.7-5.2-2.7c-1.1,0-2,0.4-2.7,1.2
		C433.8,418.4,433.4,419.5,433.4,421.1z"/>
	<path class="st0" d="M451.5,418.4c-1.2-1.2-1.8-2.7-1.8-4.5c0-1.8,0.6-3.3,1.8-4.5s2.7-1.8,4.5-1.8c1.8,0,3.3,0.6,4.5,1.8
		c1.2,1.2,1.8,2.7,1.8,4.5c0,1.8-0.6,3.3-1.8,4.5c-1.2,1.2-2.7,1.8-4.5,1.8C454.2,420.2,452.7,419.6,451.5,418.4z M461.4,461.8
		h-10.7v-38.5h10.7V461.8z"/>
	<g>
		<path class="st0" d="M501.2,62.2c-9.3-9.3-24.4-9.3-33.7,0c-4.7,4.7-7.2,11.2-7,17.9l0,0.4l0,58.7l58.9,0l0.2,0
			c6.6,0.3,13.2-2.3,17.9-7c9.3-9.3,9.3-24.4,0-33.7c-4.6-4.6-10.8-7.1-17.4-7c-0.7,0-1.4,0.1-2.1,0.1l-11.2,1.2l1.2-11.2
			c0.1-0.7,0.1-1.4,0.1-2.1C508.3,73,505.9,66.8,501.2,62.2z"/>
	</g>
	<path class="st0" d="M493,544.8H104.1c-12.9,0-25.1-5.1-34.3-14.3c-9.2-9.2-14.3-21.4-14.2-34.3l0.3-389.5
		c0-26.8,21.8-48.6,48.6-48.6h296v19.4h-296c-16.1,0-29.2,13.1-29.2,29.2L75,496.2c0,7.7,3,15.1,8.6,20.6c5.5,5.5,12.8,8.6,20.6,8.6
		H493c16.1,0,29.2-13.1,29.2-29.2V199.8h19.4v296.4C541.6,523,519.8,544.8,493,544.8z"/>
	<rect x="136.9" y="380.6" class="st0" width="324.1" height="9.7"/>
	<polygon class="st0" points="198.5,139.2 198.5,169.9 156.4,169.9 156.4,139.2 136.9,139.2 136.9,220.2 156.4,220.2 156.4,189.4 
		198.5,189.4 198.5,220.2 217.9,220.2 217.9,139.2 	"/>
	<polygon class="st0" points="341.7,158.6 341.7,139.2 260.7,139.2 260.7,220.2 341.7,220.2 341.7,200.7 280.2,200.7 280.2,189.4 
		319,189.4 319,169.9 280.2,169.9 280.2,158.6 	"/>
	<polygon class="st0" points="341.7,280.1 341.7,260.7 260.7,260.7 260.7,341.7 341.7,341.7 341.7,322.3 280.2,322.3 280.2,310.9 
		319,310.9 319,291.5 280.2,291.5 280.2,280.1 	"/>
	<polygon class="st0" points="400.1,200.7 400.1,139.2 380.6,139.2 380.6,220.2 461.6,220.2 461.6,200.7 	"/>
	<polygon class="st0" points="443.8,260.7 422.2,316.1 398.4,260.7 379,260.7 413,341.7 432.5,341.7 463.3,260.7 	"/>
	<path class="st0" d="M217.9,302c0-21.8-17.3-39.7-38.9-40.5l0,0h-42.1v81H179l0,0C200.6,341.7,217.9,323.8,217.9,302z M177.4,323.1
		h-21.1v-42.1h21.1c11.6,0,21.1,9.5,21.1,21.1S189,323.1,177.4,323.1z"/>
</g>
</svg>
