<?xml version="1.0" standalone="no"?>
<!DOCTYPE svg PUBLIC "-//W3C//DTD SVG 20010904//EN"
 "http://www.w3.org/TR/2001/REC-SVG-20010904/DTD/svg10.dtd">
<svg version="1.0" xmlns="http://www.w3.org/2000/svg"
 width="700.000000pt" height="700.000000pt" viewBox="0 0 700.000000 700.000000"
 preserveAspectRatio="xMidYMid meet">
<metadata>
Created by potrace 1.11, written by Peter Selinger 2001-2013
</metadata>
<g transform="translate(0.000000,700.000000) scale(0.100000,-0.100000)"
fill="#000000" stroke="none">
<path d="M2388 5835 c-2 -1 -29 -5 -62 -9 -154 -16 -360 -85 -498 -166 -138
-82 -222 -152 -360 -301 -28 -29 -124 -173 -139 -207 -8 -18 -17 -32 -21 -32
-5 0 -8 -7 -8 -15 0 -9 -6 -26 -14 -38 -21 -33 -75 -192 -91 -267 -7 -36 -17
-81 -21 -100 -10 -48 -14 -3524 -4 -3530 13 -8 3420 -4 3490 4 840 100 1373
944 1103 1746 -93 274 -270 506 -517 674 -157 107 -339 177 -551 212 -22 3
-228 8 -459 10 -230 2 -420 5 -421 6 -2 2 -5 203 -8 448 -4 415 -6 451 -26
535 -67 275 -171 458 -370 655 -201 199 -456 324 -741 365 -47 7 -276 15 -282
10z"/>
</g>
</svg>
