<?xml version="1.0" encoding="utf-8"?>
<!-- Generator: Adobe Illustrator 19.1.0, SVG Export Plug-In . SVG Version: 6.00 Build 0)  -->
<svg version="1.1" id="Layer_1" xmlns="http://www.w3.org/2000/svg" xmlns:xlink="http://www.w3.org/1999/xlink" x="0px" y="0px"
	 viewBox="-301 235 420 300" style="enable-background:new -301 235 420 300;" xml:space="preserve">
<style type="text/css">
	.st0{fill:#FFFFFF;}
</style>
<g>
	<g>
		<path class="st0" d="M69.3,247c-9.3-9.3-24.4-9.3-33.7,0c-4.7,4.7-7.2,11.2-7,17.9v0.4V324h58.9h0.2c6.6,0.3,13.2-2.3,17.9-7
			c9.3-9.3,9.3-24.4,0-33.7c-4.6-4.6-10.8-7.1-17.4-7c-0.7,0-1.4,0.1-2.1,0.1l-11.2,1.2l1.2-11.2c0.1-0.7,0.1-1.4,0.1-2.1
			C76.4,257.8,74,251.6,69.3,247z"/>
	</g>
	<polygon class="st0" points="-233.4,324 -233.4,354.7 -275.5,354.7 -275.5,324 -295,324 -295,405 -275.5,405 -275.5,374.2
		-233.4,374.2 -233.4,405 -214,405 -214,324 	"/>
	<polygon class="st0" points="-90.2,343.4 -90.2,324 -171.2,324 -171.2,405 -90.2,405 -90.2,385.5 -151.7,385.5 -151.7,374.2
		-112.9,374.2 -112.9,354.7 -151.7,354.7 -151.7,343.4 	"/>
	<polygon class="st0" points="-90.2,464.9 -90.2,445.5 -171.2,445.5 -171.2,526.5 -90.2,526.5 -90.2,507.1 -151.7,507.1
		-151.7,495.7 -112.9,495.7 -112.9,476.3 -151.7,476.3 -151.7,464.9 	"/>
	<polygon class="st0" points="-31.8,385.5 -31.8,324 -51.3,324 -51.3,405 29.7,405 29.7,385.5 	"/>
	<polygon class="st0" points="11.9,445.5 -9.7,500.9 -33.5,445.5 -52.9,445.5 -18.9,526.5 0.6,526.5 31.4,445.5 	"/>
	<path class="st0" d="M-214,486.8c0-21.8-17.3-39.7-38.9-40.5l0,0H-295v81h42.1l0,0C-231.3,526.5-214,508.6-214,486.8z
		 M-254.5,507.9h-21.1v-42.1h21.1c11.6,0,21.1,9.5,21.1,21.1C-233.4,498.5-242.9,507.9-254.5,507.9z"/>
</g>
</svg>
