<?xml version="1.0" encoding="utf-8"?>
<!-- Generator: Adobe Illustrator 19.1.0, SVG Export Plug-In . SVG Version: 6.00 Build 0)  -->
<svg version="1.1" id="Layer_1" xmlns="http://www.w3.org/2000/svg" xmlns:xlink="http://www.w3.org/1999/xlink" x="0px" y="0px"
	 viewBox="60 21 600 600" style="enable-background:new 60 21 600 600;" xml:space="preserve">
<style type="text/css">
	.st0{fill:#003380;}
	.st1{fill:#FFFFFF;}
</style>
<g>
	<path class="st0" d="M219.5,492.4c-4.6,0-8.6-1.9-12.2-5.8c-3.6-3.9-5.4-8.7-5.4-14.4c0-5.7,1.7-10.4,5.2-14.1s7.6-5.5,12.2-5.5
		c4.7,0,8.5,1.6,11.5,4.9v-18.9h10.7v53.1h-10.7v-5.1C227.9,490.5,224.1,492.4,219.5,492.4z M212.8,472.6c0,3.1,0.9,5.6,2.8,7.6
		c1.9,2,4,3,6.5,3s4.6-1,6.3-3s2.6-4.5,2.6-7.7s-0.9-5.7-2.6-7.8c-1.7-2.1-3.9-3.1-6.4-3.1s-4.7,1.1-6.5,3.2
		C213.7,466.9,212.8,469.5,212.8,472.6z"/>
	<path class="st0" d="M284.8,486.2c-4.3,4.1-9.4,6.2-15.3,6.2c-5.8,0-10.7-1.8-14.5-5.4c-3.8-3.6-5.7-8.4-5.7-14.5
		s1.9-10.9,5.8-14.5c3.9-3.6,8.5-5.4,13.8-5.4c5.3,0,9.8,1.6,13.5,4.8c3.7,3.2,5.5,7.6,5.5,13.2v5.7h-28.1c0.3,2.1,1.4,3.8,3.3,5.2
		c1.9,1.3,4,2,6.3,2c3.8,0,6.9-1.3,9.3-3.8L284.8,486.2z M274.5,463.4c-1.5-1.2-3.3-1.9-5.4-1.9s-4.1,0.6-5.8,1.9
		c-1.8,1.3-2.8,3-3.1,5.2H277C276.8,466.4,275.9,464.6,274.5,463.4z"/>
	<path class="st0" d="M306.7,491.8l-15.2-38.6h11.2l9.6,24.3l9.6-24.3H333l-15.3,38.6H306.7z"/>
	<path class="st0" d="M334.7,490.6c-1.2-1.2-1.8-2.7-1.8-4.5s0.6-3.3,1.8-4.5s2.7-1.8,4.5-1.8s3.3,0.6,4.5,1.8s1.8,2.7,1.8,4.5
		s-0.6,3.3-1.8,4.5s-2.7,1.8-4.5,1.8C337.4,492.4,335.9,491.8,334.7,490.6z"/>
	<path class="st0" d="M368.2,471v20.8h-10.7v-53.1h10.7v18.9c3.2-3.3,6.9-4.9,10.9-4.9s7.4,1.4,10.2,4.3c2.8,2.9,4.2,6.7,4.2,11.5
		v23.4h-10.7v-21c0-5.9-2.2-8.9-6.5-8.9c-2.1,0-4,0.8-5.6,2.3C369,465.8,368.2,468,368.2,471z"/>
	<path class="st0" d="M436.2,486.2c-4.3,4.1-9.4,6.2-15.3,6.2s-10.7-1.8-14.5-5.4s-5.7-8.4-5.7-14.5s1.9-10.9,5.8-14.5
		s8.5-5.4,13.8-5.4s9.8,1.6,13.5,4.8c3.7,3.2,5.5,7.6,5.5,13.2v5.7h-28.1c0.3,2.1,1.4,3.8,3.3,5.2c1.9,1.3,4,2,6.3,2
		c3.8,0,6.9-1.3,9.3-3.8L436.2,486.2z M425.9,463.4c-1.5-1.2-3.3-1.9-5.4-1.9s-4.1,0.6-5.8,1.9c-1.8,1.3-2.8,3-3.1,5.2h16.9
		C428.2,466.4,427.4,464.6,425.9,463.4z"/>
	<path class="st0" d="M457.5,491.8h-10.7v-53.1h10.7V491.8z"/>
	<path class="st0" d="M469.7,490.6c-1.2-1.2-1.8-2.7-1.8-4.5s0.6-3.3,1.8-4.5c1.2-1.2,2.7-1.8,4.5-1.8s3.3,0.6,4.5,1.8
		s1.8,2.7,1.8,4.5s-0.6,3.3-1.8,4.5s-2.7,1.8-4.5,1.8C472.4,492.4,470.9,491.8,469.7,490.6z"/>
	<path class="st0" d="M501.4,451.1v2.6h9.3v7.7h-9.3v30.4h-10.8v-30.4h-4.5v-7.7h4.5v-2.4c0-4.2,1.3-7.5,3.8-10
		c2.6-2.5,5.7-3.7,9.5-3.7s7.2,1.4,10.3,4.3l-3.9,7.2c-1.6-1.8-3.3-2.7-5.2-2.7c-1.1,0-2,0.4-2.7,1.2
		C501.8,448.4,501.4,449.5,501.4,451.1z"/>
	<path class="st0" d="M519.5,448.4c-1.2-1.2-1.8-2.7-1.8-4.5s0.6-3.3,1.8-4.5s2.7-1.8,4.5-1.8s3.3,0.6,4.5,1.8
		c1.2,1.2,1.8,2.7,1.8,4.5s-0.6,3.3-1.8,4.5c-1.2,1.2-2.7,1.8-4.5,1.8C522.2,450.2,520.7,449.6,519.5,448.4z M529.4,491.8h-10.7
		v-38.5h10.7V491.8z"/>
	<g>
		<path class="st0" d="M569.2,92.2c-9.3-9.3-24.4-9.3-33.7,0c-4.7,4.7-7.2,11.2-7,17.9v0.4v58.7h58.9h0.2c6.6,0.3,13.2-2.3,17.9-7
			c9.3-9.3,9.3-24.4,0-33.7c-4.6-4.6-10.8-7.1-17.4-7c-0.7,0-1.4,0.1-2.1,0.1l-11.2,1.2l1.2-11.2c0.1-0.7,0.1-1.4,0.1-2.1
			C576.3,103,573.9,96.8,569.2,92.2z"/>
	</g>
	<path class="st0" d="M561,574.8H172.1c-12.9,0-25.1-5.1-34.3-14.3s-14.3-21.4-14.2-34.3l0.3-389.5c0-26.8,21.8-48.6,48.6-48.6h296
		v19.4h-296c-16.1,0-29.2,13.1-29.2,29.2L143,526.2c0,7.7,3,15.1,8.6,20.6c5.5,5.5,12.8,8.6,20.6,8.6H561
		c16.1,0,29.2-13.1,29.2-29.2V229.8h19.4v296.4C609.6,553,587.8,574.8,561,574.8z"/>
	<rect x="204.9" y="410.6" class="st0" width="324.1" height="9.7"/>
	<polygon class="st0" points="266.5,169.2 266.5,199.9 224.4,199.9 224.4,169.2 204.9,169.2 204.9,250.2 224.4,250.2 224.4,219.4 
		266.5,219.4 266.5,250.2 285.9,250.2 285.9,169.2 	"/>
	<polygon class="st0" points="409.7,188.6 409.7,169.2 328.7,169.2 328.7,250.2 409.7,250.2 409.7,230.7 348.2,230.7 348.2,219.4 
		387,219.4 387,199.9 348.2,199.9 348.2,188.6 	"/>
	<polygon class="st0" points="409.7,310.1 409.7,290.7 328.7,290.7 328.7,371.7 409.7,371.7 409.7,352.3 348.2,352.3 348.2,340.9 
		387,340.9 387,321.5 348.2,321.5 348.2,310.1 	"/>
	<polygon class="st0" points="468.1,230.7 468.1,169.2 448.6,169.2 448.6,250.2 529.6,250.2 529.6,230.7 	"/>
	<polygon class="st0" points="511.8,290.7 490.2,346.1 466.4,290.7 447,290.7 481,371.7 500.5,371.7 531.3,290.7 	"/>
	<path class="st0" d="M285.9,332c0-21.8-17.3-39.7-38.9-40.5l0,0h-42.1v81H247l0,0C268.6,371.7,285.9,353.8,285.9,332z M245.4,353.1
		h-21.1V311h21.1c11.6,0,21.1,9.5,21.1,21.1S257,353.1,245.4,353.1z"/>
</g>
<g>
	<path class="st1" d="M211.5,483.4c-4.6,0-8.6-1.9-12.2-5.8c-3.6-3.9-5.4-8.7-5.4-14.4c0-5.7,1.7-10.4,5.2-14.1s7.6-5.5,12.2-5.5
		c4.7,0,8.5,1.6,11.5,4.9v-18.9h10.7v53.1h-10.7v-5.1C219.9,481.5,216.1,483.4,211.5,483.4z M204.8,463.6c0,3.1,0.9,5.6,2.8,7.6
		c1.9,2,4,3,6.5,3s4.6-1,6.3-3s2.6-4.5,2.6-7.7s-0.9-5.7-2.6-7.8c-1.7-2.1-3.9-3.1-6.4-3.1s-4.7,1.1-6.5,3.2
		C205.7,457.9,204.8,460.5,204.8,463.6z"/>
	<path class="st1" d="M276.8,477.2c-4.3,4.1-9.4,6.2-15.3,6.2c-5.8,0-10.7-1.8-14.5-5.4s-5.7-8.4-5.7-14.5s1.9-10.9,5.8-14.5
		c3.9-3.6,8.5-5.4,13.8-5.4c5.3,0,9.8,1.6,13.5,4.8c3.7,3.2,5.5,7.6,5.5,13.2v5.7h-28.1c0.3,2.1,1.4,3.8,3.3,5.2c1.9,1.3,4,2,6.3,2
		c3.8,0,6.9-1.3,9.3-3.8L276.8,477.2z M266.5,454.4c-1.5-1.2-3.3-1.9-5.4-1.9s-4.1,0.6-5.8,1.9c-1.8,1.3-2.8,3-3.1,5.2H269
		C268.8,457.4,267.9,455.6,266.5,454.4z"/>
	<path class="st1" d="M298.7,482.8l-15.2-38.6h11.2l9.6,24.3l9.6-24.3H325l-15.3,38.6H298.7z"/>
	<path class="st1" d="M326.7,481.6c-1.2-1.2-1.8-2.7-1.8-4.5s0.6-3.3,1.8-4.5s2.7-1.8,4.5-1.8s3.3,0.6,4.5,1.8s1.8,2.7,1.8,4.5
		s-0.6,3.3-1.8,4.5s-2.7,1.8-4.5,1.8C329.4,483.4,327.9,482.8,326.7,481.6z"/>
	<path class="st1" d="M360.2,462v20.8h-10.7v-53.1h10.7v18.9c3.2-3.3,6.9-4.9,10.9-4.9s7.4,1.4,10.2,4.3c2.8,2.9,4.2,6.7,4.2,11.5
		v23.4h-10.7v-21c0-5.9-2.2-8.9-6.5-8.9c-2.1,0-4,0.8-5.6,2.3C361,456.8,360.2,459,360.2,462z"/>
	<path class="st1" d="M428.2,477.2c-4.3,4.1-9.4,6.2-15.3,6.2s-10.7-1.8-14.5-5.4s-5.7-8.4-5.7-14.5s1.9-10.9,5.8-14.5
		s8.5-5.4,13.8-5.4s9.8,1.6,13.5,4.8c3.7,3.2,5.5,7.6,5.5,13.2v5.7h-28.1c0.3,2.1,1.4,3.8,3.3,5.2c1.9,1.3,4,2,6.3,2
		c3.8,0,6.9-1.3,9.3-3.8L428.2,477.2z M417.9,454.4c-1.5-1.2-3.3-1.9-5.4-1.9s-4.1,0.6-5.8,1.9c-1.8,1.3-2.8,3-3.1,5.2h16.9
		C420.2,457.4,419.4,455.6,417.9,454.4z"/>
	<path class="st1" d="M449.5,482.8h-10.7v-53.1h10.7V482.8z"/>
	<path class="st1" d="M461.7,481.6c-1.2-1.2-1.8-2.7-1.8-4.5s0.6-3.3,1.8-4.5c1.2-1.2,2.7-1.8,4.5-1.8s3.3,0.6,4.5,1.8
		s1.8,2.7,1.8,4.5s-0.6,3.3-1.8,4.5s-2.7,1.8-4.5,1.8C464.4,483.4,462.9,482.8,461.7,481.6z"/>
	<path class="st1" d="M493.4,442.1v2.6h9.3v7.7h-9.3v30.4h-10.8v-30.4h-4.5v-7.7h4.5v-2.4c0-4.2,1.3-7.5,3.8-10
		c2.6-2.5,5.7-3.7,9.5-3.7s7.2,1.4,10.3,4.3l-3.9,7.2c-1.6-1.8-3.3-2.7-5.2-2.7c-1.1,0-2,0.4-2.7,1.2
		C493.8,439.4,493.4,440.5,493.4,442.1z"/>
	<path class="st1" d="M511.5,439.4c-1.2-1.2-1.8-2.7-1.8-4.5s0.6-3.3,1.8-4.5c1.2-1.2,2.7-1.8,4.5-1.8s3.3,0.6,4.5,1.8
		c1.2,1.2,1.8,2.7,1.8,4.5s-0.6,3.3-1.8,4.5c-1.2,1.2-2.7,1.8-4.5,1.8C514.2,441.2,512.7,440.6,511.5,439.4z M521.4,482.8h-10.7
		v-38.5h10.7V482.8z"/>
	<g>
		<path class="st1" d="M561.2,83.2c-9.3-9.3-24.4-9.3-33.7,0c-4.7,4.7-7.2,11.2-7,17.9v0.4v58.7h58.9h0.2c6.6,0.3,13.2-2.3,17.9-7
			c9.3-9.3,9.3-24.4,0-33.7c-4.6-4.6-10.8-7.1-17.4-7c-0.7,0-1.4,0.1-2.1,0.1l-11.2,1.2l1.2-11.2c0.1-0.7,0.1-1.4,0.1-2.1
			C568.3,94,565.9,87.8,561.2,83.2z"/>
	</g>
	<path class="st1" d="M553,565.8H164.1c-12.9,0-25.1-5.1-34.3-14.3s-14.3-21.4-14.2-34.3l0.3-389.5c0-26.8,21.8-48.6,48.6-48.6h296
		v19.4h-296c-16.1,0-29.2,13.1-29.2,29.2L135,517.2c0,7.7,3,15.1,8.6,20.6c5.5,5.5,12.8,8.6,20.6,8.6H553
		c16.1,0,29.2-13.1,29.2-29.2V220.8h19.4v296.4C601.6,544,579.8,565.8,553,565.8z"/>
	<rect x="196.9" y="401.6" class="st1" width="324.1" height="9.7"/>
	<polygon class="st1" points="258.5,160.2 258.5,190.9 216.4,190.9 216.4,160.2 196.9,160.2 196.9,241.2 216.4,241.2 216.4,210.4 
		258.5,210.4 258.5,241.2 277.9,241.2 277.9,160.2 	"/>
	<polygon class="st1" points="401.7,179.6 401.7,160.2 320.7,160.2 320.7,241.2 401.7,241.2 401.7,221.7 340.2,221.7 340.2,210.4 
		379,210.4 379,190.9 340.2,190.9 340.2,179.6 	"/>
	<polygon class="st1" points="401.7,301.1 401.7,281.7 320.7,281.7 320.7,362.7 401.7,362.7 401.7,343.3 340.2,343.3 340.2,331.9 
		379,331.9 379,312.5 340.2,312.5 340.2,301.1 	"/>
	<polygon class="st1" points="460.1,221.7 460.1,160.2 440.6,160.2 440.6,241.2 521.6,241.2 521.6,221.7 	"/>
	<polygon class="st1" points="503.8,281.7 482.2,337.1 458.4,281.7 439,281.7 473,362.7 492.5,362.7 523.3,281.7 	"/>
	<path class="st1" d="M277.9,323c0-21.8-17.3-39.7-38.9-40.5l0,0h-42.1v81H239l0,0C260.6,362.7,277.9,344.8,277.9,323z M237.4,344.1
		h-21.1V302h21.1c11.6,0,21.1,9.5,21.1,21.1S249,344.1,237.4,344.1z"/>
</g>
</svg>
