<?xml version="1.0" encoding="utf-8"?>
<!-- Generator: Adobe Illustrator 19.1.0, SVG Export Plug-In . SVG Version: 6.00 Build 0)  -->
<svg version="1.1" id="Layer_1" xmlns="http://www.w3.org/2000/svg" xmlns:xlink="http://www.w3.org/1999/xlink" x="0px" y="0px"
	 viewBox="-211 85 600 600" style="enable-background:new -211 85 600 600;" xml:space="preserve">
<style type="text/css">
	.st0{fill:#003380;}
</style>
<g>
	<g>
		<path class="st0" d="M290.2,158.5c-9.3-9.3-24.4-9.3-33.7,0c-4.7,4.7-7.2,11.2-7,17.9v0.4v58.7h58.9h0.2c6.6,0.3,13.2-2.3,17.9-7
			c9.3-9.3,9.3-24.4,0-33.7c-4.6-4.6-10.8-7.1-17.4-7c-0.7,0-1.4,0.1-2.1,0.1l-11.2,1.2l1.2-11.2c0.1-0.7,0.1-1.4,0.1-2.1
			C297.3,169.3,294.9,163.1,290.2,158.5z"/>
	</g>
	<polygon class="st0" points="-12.5,235.5 -12.5,266.2 -54.6,266.2 -54.6,235.5 -74.1,235.5 -74.1,316.5 -54.6,316.5 -54.6,285.7 
		-12.5,285.7 -12.5,316.5 6.9,316.5 6.9,235.5 	"/>
	<polygon class="st0" points="130.7,254.9 130.7,235.5 49.7,235.5 49.7,316.5 130.7,316.5 130.7,297 69.2,297 69.2,285.7 108,285.7 
		108,266.2 69.2,266.2 69.2,254.9 	"/>
	<polygon class="st0" points="130.7,376.4 130.7,357 49.7,357 49.7,438 130.7,438 130.7,418.6 69.2,418.6 69.2,407.2 108,407.2 
		108,387.8 69.2,387.8 69.2,376.4 	"/>
	<polygon class="st0" points="189.1,297 189.1,235.5 169.6,235.5 169.6,316.5 250.6,316.5 250.6,297 	"/>
	<polygon class="st0" points="232.8,357 211.2,412.4 187.4,357 168,357 202,438 221.5,438 252.3,357 	"/>
	<path class="st0" d="M6.9,398.3c0-21.8-17.3-39.7-38.9-40.5l0,0h-42.1v81H-32l0,0C-10.4,438,6.9,420.1,6.9,398.3z M-33.6,419.4
		h-21.1v-42.1h21.1c11.6,0,21.1,9.5,21.1,21.1S-22,419.4-33.6,419.4z"/>
</g>
</svg>
