<?xml version="1.0" encoding="UTF-8" standalone="no"?>
<!-- Created with Inkscape (http://www.inkscape.org/) -->
<svg
   xmlns:dc="http://purl.org/dc/elements/1.1/"
   xmlns:cc="http://creativecommons.org/ns#"
   xmlns:rdf="http://www.w3.org/1999/02/22-rdf-syntax-ns#"
   xmlns:svg="http://www.w3.org/2000/svg"
   xmlns="http://www.w3.org/2000/svg"
   xmlns:sodipodi="http://sodipodi.sourceforge.net/DTD/sodipodi-0.dtd"
   xmlns:inkscape="http://www.inkscape.org/namespaces/inkscape"
   id="svg1340"
   sodipodi:version="0.32"
   inkscape:version="0.46"
   width="498.36603"
   height="575.94873"
   sodipodi:docbase="I:\Wikipedia\Suomi\Vaakunat"
   sodipodi:docname="Helsinki.vaakuna3.svg"
   version="1.0"
   inkscape:output_extension="org.inkscape.output.svg.inkscape">
  <metadata
     id="metadata1345">
    <rdf:RDF>
      <cc:Work
         rdf:about="">
        <dc:format>image/svg+xml</dc:format>
        <dc:type
           rdf:resource="http://purl.org/dc/dcmitype/StillImage" />
      </cc:Work>
    </rdf:RDF>
  </metadata>
  <defs
     id="defs1343">
    <inkscape:perspective
       sodipodi:type="inkscape:persp3d"
       inkscape:vp_x="0 : 290 : 1"
       inkscape:vp_y="0 : 1000 : 0"
       inkscape:vp_z="500 : 290 : 1"
       inkscape:persp3d-origin="250 : 193.33333 : 1"
       id="perspective28" />
  </defs>
  <sodipodi:namedview
     inkscape:window-height="1150"
     inkscape:window-width="1600"
     inkscape:pageshadow="2"
     inkscape:pageopacity="0.0"
     borderopacity="1.0"
     bordercolor="#666666"
     pagecolor="#ffffff"
     id="base"
     showgrid="true"
     inkscape:grid-points="true"
     gridtolerance="0.5px"
     inkscape:zoom="1.0025097"
     inkscape:cx="433.01474"
     inkscape:cy="205.93268"
     inkscape:window-x="-8"
     inkscape:window-y="-8"
     inkscape:current-layer="layer1" />
  <g
     inkscape:groupmode="layer"
     id="layer1"
     inkscape:label="Layer1"
     transform="translate(-1.2962931,-2.0746926)">
    <path
       style="fill:#0072c6;fill-opacity:1;fill-rule:evenodd;stroke:#00337f;stroke-width:9.91658974;stroke-linecap:butt;stroke-linejoin:round;stroke-miterlimit:4;stroke-dasharray:none;stroke-opacity:1"
       d="M 6.254588,7.0329875 L 494.70372,7.0329875 L 494.70372,469.90972 C 494.70372,469.90972 495.04025,496.74167 472.89205,522.80991 C 450.41943,549.26001 409.43993,552.56628 409.43993,552.56628 L 279.2309,552.56628 C 279.32898,552.56628 264.02883,552.56628 250.80963,573.0651 C 237.59044,552.56628 219.08357,552.56628 219.26458,552.56628 L 90.196455,552.56628 C 90.196455,552.56628 51.860799,547.93751 30.049133,525.45492 C 8.2374668,502.97234 6.254588,469.90972 6.254588,469.90972 L 6.254588,7.0329875 z"
       id="path1350"
       sodipodi:nodetypes="ccczccccczcc" />
    <path
       style="fill:#ffc61e;fill-opacity:1;fill-rule:evenodd;stroke:#00337f;stroke-width:5.94995403;stroke-linecap:round;stroke-linejoin:round;stroke-miterlimit:4;stroke-opacity:1"
       d="M 141.7513,198.79621 C 141.7513,198.79621 138.4465,198.13496 138.4465,194.16744 C 138.4465,190.86118 141.7513,188.87742 141.7513,188.87742 C 141.7513,188.87742 135.80267,186.23241 135.80267,178.95863 C 135.80267,171.68485 141.7513,169.03984 141.7513,169.03984 C 141.7513,169.03984 138.4465,167.71734 138.4465,163.74982 C 138.4465,160.44356 141.7513,158.45981 141.7513,158.45981 C 141.7513,158.45981 137.35769,153.11916 137.12459,137.96098 L 128.53211,119.44591 C 128.53211,119.44591 125.72303,119.2806 123.24443,114.81714 C 120.76584,110.35369 121.92251,106.22086 118.61772,101.59209 C 115.31292,96.963327 109.36428,96.963327 109.36428,96.963327 C 109.36428,96.963327 109.36428,85.722027 119.27868,84.399527 C 129.19307,83.077017 133.15883,92.334557 133.15883,92.334557 C 133.15883,92.334557 139.60318,91.012047 143.73418,93.657057 C 147.86518,96.302067 149.68282,103.57585 149.68282,103.57585 C 143.6805,106.72409 141.09034,110.18838 141.09034,110.18838 C 141.09034,110.18838 145.0561,113.49464 150.34378,113.49464 C 155.63145,113.49464 160.91913,106.88211 160.91913,106.88211 C 160.91913,106.88211 166.86777,108.86587 163.56297,118.78466 C 163.56297,118.78466 174.79928,122.75217 174.79928,126.71969 C 174.79928,130.6872 163.56297,133.99346 163.56297,133.99346 C 166.69467,140.17719 160.91913,147.21851 160.91913,147.21851 C 160.91913,147.21851 156.75214,136.07291 142.41226,141.26724 C 142.41226,141.26724 149.68282,155.15354 166.86777,155.15354 C 184.71368,155.15354 194.62807,135.97722 194.62807,135.97722 C 194.62807,135.97722 201.89862,155.15354 221.06645,155.15354 C 240.23428,155.15354 246.84388,139.94474 246.84388,139.94474 C 233.62468,130.02595 227.01509,144.5735 227.01509,144.5735 C 221.411,139.62653 223.71029,130.6872 223.71029,130.6872 C 223.71029,130.6872 212.47398,127.38094 212.47398,123.41342 C 212.47398,119.44591 225.03221,116.13965 225.03221,116.13965 C 221.72741,108.86587 227.01509,101.59209 227.01509,101.59209 C 230.98085,111.51088 236.26852,109.52712 236.26852,109.52712 C 242.03744,101.44706 230.31989,93.657057 230.31989,93.657057 C 235.4295,88.545187 242.87812,91.012047 242.87812,91.012047 C 242.87812,91.012047 246.9265,79.770757 250.97487,79.770757 C 255.02325,79.770757 259.07163,91.012047 259.07163,91.012047 C 259.07163,91.012047 266.52025,88.545187 271.62986,93.657057 C 271.62986,93.657057 259.9123,101.44706 265.68122,109.52712 C 265.68122,109.52712 270.9689,111.51088 274.93466,101.59209 C 274.93466,101.59209 280.22233,108.86587 276.91754,116.13965 C 276.91754,116.13965 289.47577,119.44591 289.47577,123.41342 C 289.47577,127.38094 278.23946,130.6872 278.23946,130.6872 C 278.23946,130.6872 280.53875,139.62653 274.93466,144.5735 C 274.93466,144.5735 268.32506,130.02595 255.10587,139.94474 C 255.10587,139.94474 261.71547,155.15354 280.88329,155.15354 C 300.05112,155.15354 307.32168,135.97722 307.32168,135.97722 C 307.32168,135.97722 317.23607,155.15354 335.08198,155.15354 C 352.26693,155.15354 359.53748,141.26724 359.53748,141.26724 C 345.1976,136.07291 341.03062,147.21851 341.03062,147.21851 C 341.03062,147.21851 335.25508,140.17719 338.38678,133.99346 C 338.38678,133.99346 327.15047,130.6872 327.15047,126.71969 C 327.15047,122.75217 338.38678,118.78466 338.38678,118.78466 C 335.08198,108.86587 341.03062,106.88211 341.03062,106.88211 C 341.03062,106.88211 346.31829,113.49464 351.60597,113.49464 C 356.89365,113.49464 360.8594,110.18838 360.8594,110.18838 C 360.8594,110.18838 358.26924,106.72409 352.26693,103.57585 C 352.26693,103.57585 354.08457,96.302067 358.21557,93.657057 C 362.34656,91.012047 368.79092,92.334557 368.79092,92.334557 C 368.79092,92.334557 372.75668,83.077017 382.67107,84.399527 C 392.58546,85.722027 392.58546,96.963327 392.58546,96.963327 C 392.58546,96.963327 386.63683,96.963327 383.33203,101.59209 C 380.02723,106.22086 381.18391,110.35369 378.70531,114.81714 C 376.22671,119.2806 373.41764,119.44591 373.41764,119.44591 L 364.82516,137.96098 C 364.59206,153.11916 360.19844,158.45981 360.19844,158.45981 C 360.19844,158.45981 363.50324,160.44356 363.50324,163.74982 C 363.50324,167.71734 360.19844,169.03984 360.19844,169.03984 C 360.19844,169.03984 366.14708,171.68485 366.14708,178.95863 C 366.14708,186.23241 360.19844,188.87742 360.19844,188.87742 C 360.19844,188.87742 363.50324,190.86118 363.50324,194.16744 C 363.50324,198.13496 360.19844,198.79621 360.19844,198.79621 L 141.7513,198.79621 z"
       id="path9249" />
    <path
       style="fill:none;fill-opacity:0.75;fill-rule:evenodd;stroke:#00337f;stroke-width:4.62774229;stroke-linecap:round;stroke-linejoin:round;stroke-miterlimit:4;stroke-dasharray:none;stroke-opacity:1"
       d="M 151.00474,163.08857 L 351.93645,163.08857"
       id="path2242" />
    <path
       sodipodi:type="arc"
       style="opacity:1;fill:#ffffff;fill-opacity:1;fill-rule:evenodd;stroke:#00337f;stroke-width:7;stroke-linecap:round;stroke-linejoin:round;marker:none;marker-start:none;marker-mid:none;marker-end:none;stroke-miterlimit:4;stroke-dasharray:none;stroke-dashoffset:0;stroke-opacity:1;visibility:visible;display:inline;overflow:visible"
       id="path3121"
       sodipodi:cx="208.5"
       sodipodi:cy="187.86218"
       sodipodi:rx="19.243114"
       sodipodi:ry="19.243114"
       d="M 227.74311,187.86218 A 19.243114,19.243114 0 1 1 227.70827,186.70473"
       sodipodi:start="0"
       sodipodi:end="6.2230001"
       sodipodi:open="true"
       transform="matrix(0.66096,0,0,0.661252,-0.685488,2.327097)" />
    <path
       sodipodi:type="arc"
       style="opacity:1;fill:#ffffff;fill-opacity:1;fill-rule:evenodd;stroke:#00337f;stroke-width:7;stroke-linecap:round;stroke-linejoin:round;marker:none;marker-start:none;marker-mid:none;marker-end:none;stroke-miterlimit:4;stroke-dasharray:none;stroke-dashoffset:0;stroke-opacity:1;visibility:visible;display:inline;overflow:visible"
       id="path3123"
       sodipodi:cx="208.5"
       sodipodi:cy="187.86218"
       sodipodi:rx="19.243114"
       sodipodi:ry="19.243114"
       d="M 227.74311,187.86218 A 19.243114,19.243114 0 1 1 227.70827,186.70473"
       sodipodi:start="0"
       sodipodi:end="6.2230001"
       sodipodi:open="true"
       transform="matrix(0.66096,0,0,0.661252,56.15704,2.325497)" />
    <path
       sodipodi:type="arc"
       style="opacity:1;fill:#ffffff;fill-opacity:1;fill-rule:evenodd;stroke:#00337f;stroke-width:7;stroke-linecap:round;stroke-linejoin:round;marker:none;marker-start:none;marker-mid:none;marker-end:none;stroke-miterlimit:4;stroke-dasharray:none;stroke-dashoffset:0;stroke-opacity:1;visibility:visible;display:inline;overflow:visible"
       id="path3125"
       sodipodi:cx="208.5"
       sodipodi:cy="187.86218"
       sodipodi:rx="19.243114"
       sodipodi:ry="19.243114"
       d="M 227.74311,187.86218 A 19.243114,19.243114 0 1 1 227.70827,186.70473"
       sodipodi:start="0"
       sodipodi:end="6.2230001"
       sodipodi:open="true"
       transform="matrix(0.66096,0,0,0.661252,113.1694,-3.286003)" />
    <path
       sodipodi:type="arc"
       style="opacity:1;fill:#ffffff;fill-opacity:1;fill-rule:evenodd;stroke:#00337f;stroke-width:7;stroke-linecap:round;stroke-linejoin:round;marker:none;marker-start:none;marker-mid:none;marker-end:none;stroke-miterlimit:4;stroke-dasharray:none;stroke-dashoffset:0;stroke-opacity:1;visibility:visible;display:inline;overflow:visible"
       id="path3127"
       sodipodi:cx="208.5"
       sodipodi:cy="187.86218"
       sodipodi:rx="19.243114"
       sodipodi:ry="19.243114"
       d="M 227.74311,187.86218 A 19.243114,19.243114 0 1 1 227.70827,186.70473"
       sodipodi:start="0"
       sodipodi:end="6.2230001"
       sodipodi:open="true"
       transform="matrix(0.66096,0,0,0.661252,169.8421,2.325497)" />
    <path
       sodipodi:type="arc"
       style="opacity:1;fill:#ffffff;fill-opacity:1;fill-rule:evenodd;stroke:#00337f;stroke-width:7;stroke-linecap:round;stroke-linejoin:round;marker:none;marker-start:none;marker-mid:none;marker-end:none;stroke-miterlimit:4;stroke-dasharray:none;stroke-dashoffset:0;stroke-opacity:1;visibility:visible;display:inline;overflow:visible"
       id="path3129"
       sodipodi:cx="208.5"
       sodipodi:cy="187.86218"
       sodipodi:rx="19.243114"
       sodipodi:ry="19.243114"
       d="M 227.74311,187.86218 A 19.243114,19.243114 0 1 1 227.70827,186.70473"
       sodipodi:start="0"
       sodipodi:end="6.2230001"
       sodipodi:open="true"
       transform="matrix(0.66096,0,0,0.661252,226.8544,2.325497)" />
    <path
       style="fill:#ffffff;fill-opacity:1;fill-rule:evenodd;stroke:#00337f;stroke-width:5.28884792;stroke-linecap:round;stroke-linejoin:round;stroke-miterlimit:4;stroke-dasharray:none;stroke-opacity:1"
       d="M 170.83352,178.95863 L 153.64857,171.0236 C 153.64857,171.0236 149.68282,174.32986 149.68282,178.95863 C 149.68282,183.5874 153.64857,186.89366 153.64857,186.89366 L 170.83352,178.95863 z"
       id="path3131"
       sodipodi:nodetypes="cczcc" />
    <path
       style="fill:#ffffff;fill-opacity:1;fill-rule:evenodd;stroke:#00337f;stroke-width:5.28884792;stroke-linecap:round;stroke-linejoin:round;stroke-miterlimit:4;stroke-dasharray:none;stroke-opacity:1"
       d="M 273.28226,178.95863 L 250.80963,169.03984 L 228.33701,178.95863 L 250.80963,188.87742 L 273.28226,178.95863 z"
       id="path4879"
       sodipodi:nodetypes="ccccc" />
    <path
       style="fill:#ffffff;fill-opacity:1;fill-rule:evenodd;stroke:#00337f;stroke-width:5.28884792;stroke-linecap:round;stroke-linejoin:round;stroke-miterlimit:4;stroke-dasharray:none;stroke-opacity:1"
       d="M 334.09054,179.61988 L 351.27549,171.68485 C 351.27549,171.68485 355.24125,174.99112 355.24125,179.61988 C 355.24125,184.24865 351.27549,187.55491 351.27549,187.55491 L 334.09054,179.61988 z"
       id="path4881"
       sodipodi:nodetypes="cczcc" />
    <path
       sodipodi:type="arc"
       style="opacity:1;fill:#0072c6;fill-opacity:1;fill-rule:evenodd;stroke:#00337f;stroke-width:8;stroke-linecap:round;stroke-linejoin:round;marker:none;marker-start:none;marker-mid:none;marker-end:none;stroke-miterlimit:4;stroke-dasharray:none;stroke-dashoffset:0;stroke-opacity:1;visibility:visible;display:inline;overflow:visible"
       id="path4883"
       sodipodi:cx="462.5"
       sodipodi:cy="266.86218"
       sodipodi:rx="18.510014"
       sodipodi:ry="12.123435"
       d="M 481.01001,266.86218 A 18.510014,12.123435 0 1 1 480.9765,266.13297"
       sodipodi:start="0"
       sodipodi:end="6.2230001"
       sodipodi:open="true"
       transform="matrix(0.66096,0,0,0.661252,1.958351,2.576997)" />
    <path
       sodipodi:type="arc"
       style="opacity:1;fill:#0072c6;fill-opacity:1;fill-rule:evenodd;stroke:#00337f;stroke-width:8;stroke-linecap:round;stroke-linejoin:round;marker:none;marker-start:none;marker-mid:none;marker-end:none;stroke-miterlimit:4;stroke-dasharray:none;stroke-dashoffset:0;stroke-opacity:1;visibility:visible;display:inline;overflow:visible"
       id="path4885"
       sodipodi:cx="462.5"
       sodipodi:cy="266.86218"
       sodipodi:rx="18.510014"
       sodipodi:ry="12.123435"
       d="M 481.01001,266.86218 A 18.510014,12.123435 0 1 1 480.9765,266.13297"
       sodipodi:start="0"
       sodipodi:end="6.2230001"
       sodipodi:open="true"
       transform="matrix(0.66096,0,0,0.661252,-111.7267,2.576997)" />
    <path
       style="fill:#ffc61e;fill-opacity:1;fill-rule:evenodd;stroke:#00337f;stroke-width:9.91658974;stroke-linecap:butt;stroke-linejoin:round;stroke-miterlimit:4;stroke-dasharray:none;stroke-opacity:1"
       d="M 49.216961,212.68251 L 72.350546,225.2463 C 75.655344,329.06294 151.6657,373.36686 151.6657,373.36686 L 117.2958,379.31813 C 117.2958,379.31813 41.990877,314.59212 49.216961,212.68251 z"
       id="path2234"
       sodipodi:nodetypes="ccccc" />
    <path
       style="fill:#ffc61e;fill-opacity:1;fill-rule:evenodd;stroke:#00337f;stroke-width:9.91658974;stroke-linecap:butt;stroke-linejoin:round;stroke-miterlimit:4;stroke-dasharray:none;stroke-opacity:1"
       d="M 451.74135,213.01313 L 428.60776,225.57693 C 425.30296,329.39357 349.29261,373.69748 349.29261,373.69748 L 383.66251,379.64876 C 383.66251,379.64876 458.96743,314.92275 451.74135,213.01313 z"
       id="path3984"
       sodipodi:nodetypes="ccccc" />
    <path
       style="fill:#ffc61e;fill-opacity:1;fill-rule:evenodd;stroke:#00337f;stroke-width:9.91658974;stroke-linecap:butt;stroke-linejoin:round;stroke-miterlimit:4;stroke-dasharray:none;stroke-opacity:1"
       d="M 74.333425,243.76137 C 93.501253,255.66392 148.3609,273.51773 148.3609,273.51773 L 148.3609,299.30658 C 148.3609,299.30658 200.57236,314.51539 250.80963,314.51539 C 301.70352,314.51539 353.25837,299.30658 353.25837,299.30658 L 353.25837,273.51773 C 353.25837,273.51773 409.43993,254.34141 426.62488,243.10012 C 425.96392,306.58036 356.56317,374.02811 356.56317,374.02811 L 248.82675,424.2833 L 149.68282,374.68936 C 149.68282,374.68936 80.943021,325.75668 74.333425,243.76137 z"
       id="path5746"
       sodipodi:nodetypes="ccczccccccc" />
    <path
       sodipodi:nodetypes="czzzzzzzzzcczccccczcc"
       id="path2229"
       d="M 6.254588,382.62439 C 6.254588,382.62439 11.531252,372.04435 31.371052,372.04435 C 51.19984,372.04435 60.288034,389.0716 87.552617,389.23692 C 114.8172,389.40223 113.49528,372.87092 140.42938,372.7056 C 167.36349,372.54029 169.67684,389.23692 196.61095,389.23692 C 223.54505,389.23692 223.21457,372.54029 250.80963,372.7056 C 278.4047,372.87092 278.23946,389.23692 305.66928,389.23692 C 333.0991,389.23692 330.95098,372.87092 357.88509,372.7056 C 384.81919,372.54029 384.98443,389.40223 412.08377,389.23692 C 439.18311,389.0716 445.78206,372.04435 466.28246,372.04435 C 486.7722,372.04435 494.70372,382.62439 494.70372,382.62439 L 494.70372,469.90972 C 494.70372,469.90972 495.04025,496.74167 472.89205,522.80991 C 450.41943,549.26001 409.43993,552.56628 409.43993,552.56628 L 279.2309,552.56628 C 279.32898,552.56628 264.02883,552.56628 250.80963,573.0651 C 237.59044,552.56628 219.08357,552.56628 219.26458,552.56628 L 90.196455,552.56628 C 90.196455,552.56628 51.860799,547.93751 30.049133,525.45492 C 8.2374668,502.97234 6.254588,469.90972 6.254588,469.90972 L 6.254588,382.62439 z"
       style="fill:#ffffff;fill-opacity:1;fill-rule:evenodd;stroke:#00337f;stroke-width:9.91658974;stroke-linecap:butt;stroke-linejoin:round;stroke-miterlimit:4;stroke-dasharray:none;stroke-opacity:1" />
    <path
       style="fill:none;fill-opacity:0.75;fill-rule:evenodd;stroke:#00337f;stroke-width:9.91658974;stroke-linecap:butt;stroke-linejoin:miter;stroke-miterlimit:4;stroke-dasharray:none;stroke-opacity:1;display:inline"
       d="M 79.621102,272.19523 C 102.09373,284.75903 148.3609,299.30658 148.3609,299.30658"
       id="path7494"
       sodipodi:nodetypes="cc" />
    <path
       sodipodi:nodetypes="cc"
       id="path8369"
       d="M 421.99817,272.19523 C 399.52554,284.75903 353.25837,299.30658 353.25837,299.30658"
       style="fill:none;fill-opacity:0.75;fill-rule:evenodd;stroke:#00337f;stroke-width:9.91658974;stroke-linecap:butt;stroke-linejoin:miter;stroke-miterlimit:4;stroke-dasharray:none;stroke-opacity:1;display:inline" />
    <path
       style="fill:none;fill-opacity:0.75;fill-rule:evenodd;stroke:#00337f;stroke-width:9.91658974;stroke-linecap:butt;stroke-linejoin:miter;stroke-miterlimit:4;stroke-dasharray:none;stroke-opacity:1;display:inline"
       d="M 92.179334,304.5966 C 92.179334,304.5966 166.86777,340.96549 250.80963,340.96549 C 334.7515,340.96549 410.10089,304.5966 410.10089,304.5966"
       id="path8371"
       sodipodi:nodetypes="czc" />
    <path
       sodipodi:nodetypes="czc"
       id="path9246"
       d="M 113.33004,338.98173 C 113.33004,338.98173 164.88489,366.75433 248.82675,366.75433 C 332.76862,366.75433 388.28923,338.32048 388.28923,338.32048"
       style="fill:none;fill-opacity:0.75;fill-rule:evenodd;stroke:#00337f;stroke-width:9.91658974;stroke-linecap:butt;stroke-linejoin:miter;stroke-miterlimit:4;stroke-dasharray:none;stroke-opacity:1;display:inline" />
  </g>
</svg>
